{"title":"In.The.Heart.of.the.Sea.2015.DVDScr.XVID.AC3.HQ.Hive-CM8","uid":13057845,"size":1913672722,"categoryP":"video","categoryS":"movies","magnet":"?xt=urn:btih:8dfc994f9313425e099d804c9886dbdca9b9e8df&amp;dn=In.The.Heart.of.the.Sea.2015.DVDScr.XVID.AC3.HQ.Hive-CM8&amp;tr=udp%3A%2F%2Ftracker.leechers-paradise.org%3A6969&amp;tr=udp%3A%2F%2Fzer0day.ch%3A1337&amp;tr=udp%3A%2F%2Fopen.demonii.com%3A1337&amp;tr=udp%3A%2F%2Ftracker.coppersurfer.tk%3A6969&amp;tr=udp%3A%2F%2Fexodus.desync.com%3A6969","seeders":0,"leechers":0,"uploader":"xxxlavalxxx","files":4,"time":1450676006,"description":"http://extraimago.com/image/5cO\r\n \nhttp://www.imdb.com/title/tt1390411/\r\n\r\n\r\nA recounting of a whaling ship's sinking by a giant whale in 1820 that would inspire the great novel, Moby Dick.\r\n\r\nDirector: Ron Howard\r\nWriters: Charles Leavitt (screenplay), Charles Leavitt (story)\r\nStars: Chris Hemsworth, Cillian Murphy, Brendan Gleeson\r\nGenres: Action | Adventure | Biography | Drama | History | Thriller\r\nCountry: USA | Australia | Spain | UK | Canada\r\nLanguage: English\r\n\r\n\r\nIn.The.Heart.of.the.Sea.2015.DVDScr.XVID.AC3.HQ.Hive-CM8\r\n\r\nThx Hive\r\n\r\nCM8 Doing It Right The First Time \r\n\r\nSource: DVD-Screener Big Thanks M8\r\n\r\n\r\nNotes:\r\n\r\nSource: DVD-Screener Big THX m8\r\n\r\nNotes:\r\nDVDScreener 4 of 40\r\nwill do them all one after each other, 4th hot title\r\n\r\nEncode:\r\nquality was perfect on this.\r\nAll digital watermarks are removed.\r\nFixed brightness,contrast and rgb, and added sharpness.\r\n\r\ngot very nice\r\nenjoy\r\n\r\nVideo: 720x400 @bitrate 1800 2pass\r\nAudio: English AC3 2.0 Stereo\r\nSample: yes included\r\n\r\n\r\n\r\n\r\n \nhttp://www.imdb.com/title/tt1390411/\r\n\r\n\r\nComplete Name                            : In.The.Heart.of.the.Sea.2015.DVDScr.XVID.AC3.HQ.Hive-CM8.avi\r\nFormat                                   : AVI\r\nFormat/Info                              : Audio Video Interleave\r\nFile size                                : 1.77 GiB\r\nDuration                                 : 2h 1mn\r\nOverall bit rate                         : 2 080 Kbps\r\nWriting application                      : Nandub v1.0rc2\r\nWriting library                          : Nandub build 1853/release\r\n\r\nVideo\r\nID                                       : 0\r\nFormat                                   : MPEG-4 Visual\r\nFormat profile                           : Advanced   \r\nFormat settings, BVOP                    : 2\r\nFormat settings, QPel                    : Yes\r\nFormat settings, GMC                     : No warppoints\r\nFormat settings, Matrix                  : Default (H.263)\r\nMuxing mode                              : Packed bitstream\r\nCodec ID                                 : XVID\r\nCodec ID/Hint                            : XviD\r\nDuration                                 : 2h 1mn\r\nBit rate                                 : 1 812 Kbps\r\nWidth                                    : 720 pixels\r\nHeight                                   : 400 pixels\r\nDisplay aspect ratio                     : 16:9\r\nFrame rate                               : 29.970 fps\r\nColor space                              : YUV\r\nChroma subsampling                       : 4:2:0\r\nBit depth                                : 8 bits\r\nScan type                                : Progressive\r\nCompression mode                         : Lossy\r\nBits/(Pixel*Frame)                       : 0.210\r\nStream size                              : 1.54 GiB (87%)\r\nWriting library                          : XviD 1.2.1 (UTC 2008-12-04)\r\n\r\nAudio\r\nID                                       : 1\r\nFormat                                   : AC-3\r\nFormat/Info                              : Audio Coding 3\r\nMode extension                           : CM (complete main)\r\nFormat settings, Endianness              : Big\r\nCodec ID                                 : 2000\r\nDuration                                 : 2h 1mn\r\nBit rate mode                            : Constant\r\nBit rate                                 : 256 Kbps\r\nChannel(s)                               : 2 channels\r\nChannel positions                        : Front: L R\r\nSampling rate                            : 48.0 KHz\r\nBit depth                                : 16 bits\r\nCompression mode                         : Lossy\r\nStream size                              : 223 MiB (12%)\r\nAlignment                                : Split accross interleaves\r\nInterleave, duration                     : 33 ms (1.00 video frame)\r\nInterleave, preload duration             : 500 ms\r\n\r\n\r\nGreetz\r\n\r\nSugarB,iNCOMiNG,Izzy,MenaceIISociety,jiinx,SiMPLE,CherryBomb,bigguy79\r\nranbailey,ViSiON,UnKnOwN,YanKeeS,COPYxRIGHT,THC,VAiN,ACAB,DRs\r\nLKRG,Kingstoner,SiMPLE,TiTAN,cadance,PLAYNOW\r\nUnevano,BigVik,Rapeseed,SAFC,goldadvance,KaN1vE,Pinnz,Wayne,HiGH\r\nSeeN,jtr,Limey,ICONiK,TED,rkofan,mrtoke09\r\nMr Hive\r\n\r\nWONDER WHERE ALL THE OLD DDD FOLKS ARE DONT BE SCARED MESSAGE ME \r\n\r\nsupport the producer and watch it in cinema as intended on the big screen \r\n\r\nLOOKING FOR ANYTHING YOU WANT TO LOOK AND SOUND BETTER\r\n\r\nCOME FIND US WE DONT BITE \r\n\r\n  \r\n\r\n \nhttp://extraimago.com/image/5cS \nhttp://extraimago.com/image/5cq \nhttp://extraimago.com/image/5cy \nhttp://extraimago.com/image/5cL \nhttp://extraimago.com/image/5cQ","torrent":{"xt":"urn:btih:8dfc994f9313425e099d804c9886dbdca9b9e8df","amp;dn":"In.The.Heart.of.the.Sea.2015.DVDScr.XVID.AC3.HQ.Hive-CM8","amp;tr":["udp%3A%2F%2Ftracker.leechers-paradise.org%3A6969","udp%3A%2F%2Fzer0day.ch%3A1337","udp%3A%2F%2Fopen.demonii.com%3A1337","udp%3A%2F%2Ftracker.coppersurfer.tk%3A6969","udp%3A%2F%2Fexodus.desync.com%3A6969"],"infoHash":"8dfc994f9313425e099d804c9886dbdca9b9e8df","infoHashBuffer":{"type":"Buffer","data":[141,252,153,79,147,19,66,94,9,157,128,76,152,134,219,220,169,185,232,223]},"announce":[],"urlList":[]}}